<mxfile host="app.diagrams.net" modified="2024-01-19T16:59:18.645Z" agent="Mozilla/5.0 (Windows NT 10.0; Win64; x64; rv:121.0) Gecko/20100101 Firefox/121.0" version="22.1.21" etag="QeeEAISN-FxORyOG6WN2" type="github">
  <diagram name="Page-1" id="hWufk0cafSLw7xV6EHiz">
    <mxGraphModel>
      <root>
        <mxCell id="0" />
        <mxCell id="1" parent="0" />
      </root>
    </mxGraphModel>
  </diagram>
</mxfile>
